<svg xmlns="http://www.w3.org/2000/svg" xmlns:xlink="http://www.w3.org/1999/xlink" width="750" zoomAndPan="magnify" viewBox="0 0 562.5 562.499982" height="750" preserveAspectRatio="xMidYMid meet" version="1.0"><defs><g/></defs><g fill="#000000" fill-opacity="1"><g transform="translate(269.461354, 443.094929)"><g/></g></g><g fill="#000000" fill-opacity="1"><g transform="translate(258.412385, 442.499285)"><g><path d="M -30.453125 6.65625 L -28.734375 -0.40625 L -6.34375 15.609375 L -7.953125 22.203125 L -35.1875 26.125 L -33.46875 19.078125 L -16.390625 16.96875 L -16.25 16.390625 Z M -30.453125 6.65625 "/></g></g></g><g fill="#000000" fill-opacity="1"><g transform="translate(231.639064, 436.430738)"><g><path d="M -45.625 25.171875 L -42.875 18.890625 L -26.328125 26.171875 L -21.921875 16.140625 L -36.9375 9.53125 L -34.203125 3.34375 L -19.1875 9.953125 L -12.421875 -5.453125 L -4.921875 -2.15625 L -21.578125 35.75 Z M -45.625 25.171875 "/></g></g></g><g fill="#000000" fill-opacity="1"><g transform="translate(204.497985, 425.060021)"><g><path d="M -11.4375 -8.59375 C -8.539062 -6.601562 -6.945312 -4.34375 -6.65625 -1.8125 C -6.375 0.707031 -7.25 3.441406 -9.28125 6.390625 L -21.015625 23.453125 L -27.46875 19.015625 L -16.296875 2.78125 C -15.222656 1.207031 -14.773438 -0.171875 -14.953125 -1.359375 C -15.128906 -2.554688 -15.925781 -3.640625 -17.34375 -4.609375 C -19.132812 -5.847656 -20.929688 -6.21875 -22.734375 -5.71875 C -24.546875 -5.226562 -26.316406 -3.726562 -28.046875 -1.21875 L -37.3125 12.25 L -43.765625 7.796875 L -26.0625 -17.9375 L -19.84375 -13.65625 L -22.453125 -9.875 L -22.046875 -9.421875 C -20.203125 -10.328125 -18.4375 -10.734375 -16.75 -10.640625 C -15.0625 -10.546875 -13.289062 -9.863281 -11.4375 -8.59375 Z M -11.4375 -8.59375 "/></g></g></g><g fill="#000000" fill-opacity="1"><g transform="translate(177.653345, 406.061647)"><g><path d="M -9.09375 -9.265625 C -7.03125 -7.347656 -5.972656 -5.328125 -5.921875 -3.203125 C -5.878906 -1.085938 -6.910156 1.097656 -9.015625 3.359375 L -32.984375 29.109375 L -38.734375 23.765625 L -14.984375 -1.75 C -13.679688 -3.144531 -13.609375 -4.382812 -14.765625 -5.46875 C -15.085938 -5.769531 -15.488281 -6.039062 -15.96875 -6.28125 L -16.1875 -6.640625 L -12.59375 -11.53125 C -12.113281 -11.40625 -11.566406 -11.144531 -10.953125 -10.75 C -10.347656 -10.363281 -9.726562 -9.867188 -9.09375 -9.265625 Z M -9.09375 -9.265625 "/></g></g></g><g fill="#000000" fill-opacity="1"><g transform="translate(166.00858, 395.368331)"><g><path d="M -8.15625 -10.109375 C -6.289062 -8.003906 -5.4375 -5.894531 -5.59375 -3.78125 C -5.75 -1.664062 -6.988281 0.414062 -9.3125 2.46875 L -35.65625 25.765625 L -40.84375 19.890625 L -14.734375 -3.203125 C -13.304688 -4.460938 -13.117188 -5.6875 -14.171875 -6.875 C -14.460938 -7.207031 -14.832031 -7.519531 -15.28125 -7.8125 L -15.46875 -8.171875 L -11.421875 -12.703125 C -10.953125 -12.523438 -10.429688 -12.210938 -9.859375 -11.765625 C -9.296875 -11.316406 -8.726562 -10.765625 -8.15625 -10.109375 Z M -8.15625 -10.109375 "/></g></g></g><g fill="#000000" fill-opacity="1"><g transform="translate(155.379259, 383.331355)"><g/></g></g><g fill="#000000" fill-opacity="1"><g transform="translate(148.199148, 375.202741)"><g><path d="M -8.359375 -16.359375 C -6.972656 -13.835938 -6.046875 -11.425781 -5.578125 -9.125 C -5.117188 -6.832031 -5.03125 -4.753906 -5.3125 -2.890625 C -5.59375 -1.023438 -6.148438 0.582031 -6.984375 1.9375 L -13.96875 0.65625 L -14.3125 0.046875 C -13.289062 -1.941406 -12.765625 -4.035156 -12.734375 -6.234375 C -12.703125 -8.441406 -13.304688 -10.675781 -14.546875 -12.9375 C -15.609375 -14.84375 -16.8125 -16.0625 -18.15625 -16.59375 C -19.507812 -17.125 -20.898438 -17 -22.328125 -16.21875 C -23.179688 -15.738281 -23.8125 -15.179688 -24.21875 -14.546875 C -24.625 -13.910156 -24.828125 -13.113281 -24.828125 -12.15625 C -24.835938 -11.195312 -24.65625 -10.019531 -24.28125 -8.625 L -22.765625 -3.390625 C -21.710938 0.273438 -21.609375 3.382812 -22.453125 5.9375 C -23.296875 8.488281 -25.097656 10.523438 -27.859375 12.046875 C -29.910156 13.179688 -31.992188 13.664062 -34.109375 13.5 C -36.222656 13.332031 -38.253906 12.507812 -40.203125 11.03125 C -42.148438 9.550781 -43.875 7.445312 -45.375 4.71875 C -46.914062 1.925781 -47.867188 -0.664062 -48.234375 -3.0625 C -48.597656 -5.457031 -48.398438 -7.765625 -47.640625 -9.984375 L -40.828125 -9.125 L -40.484375 -8.5 C -40.984375 -6.882812 -41.140625 -5.269531 -40.953125 -3.65625 C -40.765625 -2.039062 -40.195312 -0.378906 -39.25 1.328125 C -38.164062 3.296875 -36.992188 4.597656 -35.734375 5.234375 C -34.472656 5.878906 -33.226562 5.863281 -32 5.1875 C -30.863281 4.550781 -30.15625 3.6875 -29.875 2.59375 C -29.59375 1.507812 -29.753906 -0.0195312 -30.359375 -2 L -31.984375 -7.3125 C -33.179688 -11.226562 -33.328125 -14.472656 -32.421875 -17.046875 C -31.523438 -19.617188 -29.648438 -21.691406 -26.796875 -23.265625 C -24.535156 -24.515625 -22.296875 -25.113281 -20.078125 -25.0625 C -17.859375 -25.019531 -15.742188 -24.269531 -13.734375 -22.8125 C -11.722656 -21.351562 -9.929688 -19.203125 -8.359375 -16.359375 Z M -8.359375 -16.359375 "/></g></g></g><g fill="#000000" fill-opacity="1"><g transform="translate(132.863887, 347.097774)"><g><path d="M -14.25 -17.796875 L -9.46875 -21.671875 C -8.519531 -21.097656 -7.644531 -20.273438 -6.84375 -19.203125 C -6.039062 -18.128906 -5.363281 -16.828125 -4.8125 -15.296875 C -3.675781 -12.109375 -3.679688 -9.378906 -4.828125 -7.109375 C -5.972656 -4.835938 -8.203125 -3.113281 -11.515625 -1.9375 L -25.484375 3.046875 L -23.890625 7.515625 L -29.765625 9.609375 L -31.359375 5.140625 L -37.09375 7.1875 L -40.921875 0.21875 L -34 -2.25 L -36.96875 -10.609375 L -31.09375 -12.703125 L -28.125 -4.34375 L -14.6875 -9.140625 C -13.226562 -9.660156 -12.269531 -10.34375 -11.8125 -11.1875 C -11.363281 -12.03125 -11.347656 -13.023438 -11.765625 -14.171875 C -12.234375 -15.492188 -12.992188 -16.515625 -14.046875 -17.234375 Z M -14.25 -17.796875 "/></g></g></g><g fill="#000000" fill-opacity="1"><g transform="translate(125.280686, 327.594532)"><g><path d="M -1.6875 -12.0625 C -1.3125 -10.101562 -1.347656 -8.332031 -1.796875 -6.75 C -2.242188 -5.175781 -3.09375 -3.863281 -4.34375 -2.8125 C -5.59375 -1.757812 -7.203125 -1.046875 -9.171875 -0.671875 C -10.992188 -0.328125 -12.597656 -0.429688 -13.984375 -0.984375 C -15.367188 -1.535156 -16.609375 -2.550781 -17.703125 -4.03125 C -18.796875 -5.507812 -19.804688 -7.53125 -20.734375 -10.09375 C -21.378906 -11.851562 -21.96875 -13.175781 -22.5 -14.0625 C -23.03125 -14.957031 -23.546875 -15.53125 -24.046875 -15.78125 C -24.554688 -16.03125 -25.160156 -16.09375 -25.859375 -15.96875 C -26.835938 -15.78125 -27.519531 -15.289062 -27.90625 -14.5 C -28.289062 -13.71875 -28.332031 -12.53125 -28.03125 -10.9375 C -27.707031 -9.238281 -27.019531 -7.691406 -25.96875 -6.296875 C -24.914062 -4.898438 -23.664062 -3.75 -22.21875 -2.84375 L -22.109375 -2.296875 L -26.375 1.84375 C -28.394531 0.613281 -30.097656 -1.023438 -31.484375 -3.078125 C -32.867188 -5.140625 -33.8125 -7.503906 -34.3125 -10.171875 C -35.082031 -14.234375 -34.773438 -17.332031 -33.390625 -19.46875 C -32.015625 -21.601562 -29.742188 -22.972656 -26.578125 -23.578125 L -13.25 -26.109375 C -11.875 -26.367188 -11.300781 -27.101562 -11.53125 -28.3125 C -11.625 -28.78125 -11.796875 -29.21875 -12.046875 -29.625 L -12 -30.03125 L -6.734375 -31.609375 C -6.378906 -31.234375 -6.039062 -30.679688 -5.71875 -29.953125 C -5.394531 -29.234375 -5.144531 -28.421875 -4.96875 -27.515625 C -4.625 -25.679688 -4.707031 -24.175781 -5.21875 -23 C -5.726562 -21.832031 -6.691406 -20.890625 -8.109375 -20.171875 L -8.0625 -19.578125 C -4.59375 -18.671875 -2.46875 -16.164062 -1.6875 -12.0625 Z M -7.90625 -13.4375 C -8.238281 -15.21875 -9.101562 -16.523438 -10.5 -17.359375 C -11.90625 -18.203125 -13.671875 -18.421875 -15.796875 -18.015625 L -18.921875 -17.421875 L -18.953125 -16.875 C -18.472656 -16.488281 -18.035156 -15.941406 -17.640625 -15.234375 C -17.253906 -14.535156 -16.8125 -13.5 -16.3125 -12.125 C -15.71875 -10.507812 -15.007812 -9.398438 -14.1875 -8.796875 C -13.363281 -8.203125 -12.332031 -8.019531 -11.09375 -8.25 C -9.78125 -8.5 -8.851562 -9.078125 -8.3125 -9.984375 C -7.78125 -10.890625 -7.644531 -12.039062 -7.90625 -13.4375 Z M -7.90625 -13.4375 "/></g></g></g><g fill="#000000" fill-opacity="1"><g transform="translate(119.556916, 299.045566)"><g><path d="M 0.40625 -18.203125 C 0.4375 -15.179688 -0.160156 -12.503906 -1.390625 -10.171875 C -2.628906 -7.847656 -4.457031 -6.019531 -6.875 -4.6875 C -9.300781 -3.351562 -12.222656 -2.664062 -15.640625 -2.625 C -19.078125 -2.59375 -22.019531 -3.21875 -24.46875 -4.5 C -26.914062 -5.78125 -28.773438 -7.5625 -30.046875 -9.84375 C -31.328125 -12.132812 -31.984375 -14.757812 -32.015625 -17.71875 C -32.085938 -24.3125 -29.75 -28.5625 -25 -30.46875 L -21.078125 -25.125 L -21.078125 -24.53125 C -22.546875 -23.875 -23.628906 -23.023438 -24.328125 -21.984375 C -25.035156 -20.953125 -25.378906 -19.554688 -25.359375 -17.796875 C -25.335938 -15.535156 -24.535156 -13.78125 -22.953125 -12.53125 C -21.367188 -11.28125 -18.957031 -10.671875 -15.71875 -10.703125 C -12.507812 -10.742188 -10.125 -11.414062 -8.5625 -12.71875 C -7 -14.019531 -6.226562 -15.828125 -6.25 -18.140625 C -6.269531 -19.847656 -6.742188 -21.285156 -7.671875 -22.453125 C -8.609375 -23.617188 -9.9375 -24.445312 -11.65625 -24.9375 L -11.71875 -25.53125 L -8.71875 -31.140625 C -6.070312 -30.378906 -3.898438 -28.9375 -2.203125 -26.8125 C -0.503906 -24.6875 0.363281 -21.816406 0.40625 -18.203125 Z M 0.40625 -18.203125 "/></g></g></g><g fill="#000000" fill-opacity="1"><g transform="translate(118.968155, 270.587396)"><g><path d="M 0.71875 -4.4375 L -42.484375 -11.484375 L -41.21875 -19.234375 L -17.25 -15.328125 L -17.125 -16.078125 L -27.265625 -26.890625 L -25.984375 -34.75 L -25.34375 -34.640625 L -13.515625 -21.953125 L 4.34375 -31 L 5.03125 -30.890625 L 3.703125 -22.734375 L -10.890625 -15.0625 L -11.015625 -14.3125 L 1.984375 -12.1875 Z M 0.71875 -4.4375 "/></g></g></g><g fill="#000000" fill-opacity="1"><g transform="translate(123.944133, 242.38091)"><g/></g></g><g fill="#000000" fill-opacity="1"><g transform="translate(125.432868, 232.023238)"><g><path d="M -28.796875 -36.015625 C -25.929688 -42.085938 -22.171875 -45.984375 -17.515625 -47.703125 C -12.859375 -49.421875 -7.429688 -48.816406 -1.234375 -45.890625 C 4.941406 -42.972656 8.847656 -39.171875 10.484375 -34.484375 C 12.128906 -29.796875 11.519531 -24.414062 8.65625 -18.34375 L 2.296875 -4.859375 L -35.15625 -22.53125 Z M 2.234375 -20.84375 C 4.046875 -24.707031 4.414062 -28.054688 3.34375 -30.890625 C 2.28125 -33.734375 -0.441406 -36.191406 -4.828125 -38.265625 C -9.222656 -40.335938 -12.859375 -40.878906 -15.734375 -39.890625 C -18.609375 -38.910156 -20.953125 -36.488281 -22.765625 -32.625 L -25.4375 -26.984375 L -0.4375 -15.203125 Z M 2.234375 -20.84375 "/></g></g></g><g fill="#000000" fill-opacity="1"><g transform="translate(142.415726, 196.168686)"><g><path d="M 7.75 -32.9375 L -4.4375 -16.984375 C -2.144531 -15.515625 -0.109375 -14.925781 1.671875 -15.21875 C 3.460938 -15.519531 5.050781 -16.578125 6.4375 -18.390625 C 7.53125 -19.828125 8.144531 -21.1875 8.28125 -22.46875 C 8.414062 -23.757812 8.15625 -25.085938 7.5 -26.453125 L 7.859375 -26.9375 L 13.6875 -29.03125 C 14.800781 -26.882812 15.269531 -24.582031 15.09375 -22.125 C 14.925781 -19.664062 13.800781 -17.070312 11.71875 -14.34375 C 9.757812 -11.78125 7.578125 -9.9375 5.171875 -8.8125 C 2.773438 -7.695312 0.226562 -7.367188 -2.46875 -7.828125 C -5.175781 -8.285156 -7.921875 -9.578125 -10.703125 -11.703125 C -13.515625 -13.847656 -15.476562 -16.195312 -16.59375 -18.75 C -17.71875 -21.300781 -18.0625 -23.84375 -17.625 -26.375 C -17.1875 -28.914062 -16.101562 -31.320312 -14.375 -33.59375 C -11.695312 -37.101562 -8.710938 -39.082031 -5.421875 -39.53125 C -2.128906 -39.988281 1.3125 -38.835938 4.90625 -36.078125 C 6.21875 -35.078125 7.195312 -34.257812 7.84375 -33.625 Z M -0.375 -30.65625 C -2.300781 -32.039062 -4.007812 -32.65625 -5.5 -32.5 C -7 -32.34375 -8.347656 -31.476562 -9.546875 -29.90625 C -11.953125 -26.757812 -11.5625 -23.523438 -8.375 -20.203125 Z M -0.375 -30.65625 "/></g></g></g><g fill="#000000" fill-opacity="1"><g transform="translate(160.36432, 172.123421)"><g><path d="M 15.953125 -14.421875 L 9.015625 -8.15625 L -20.5 -23.5625 L -14.40625 -29.078125 L 6.25 -17.78125 L 6.75 -18.21875 L -2.390625 -39.9375 L 3.5625 -45.3125 Z M 15.953125 -14.421875 "/></g></g></g><g fill="#000000" fill-opacity="1"><g transform="translate(182.099611, 151.973392)"><g><path d="M 19.046875 -27.984375 L 1.9375 -17.453125 C 3.539062 -15.242188 5.234375 -13.957031 7.015625 -13.59375 C 8.796875 -13.238281 10.65625 -13.660156 12.59375 -14.859375 C 14.132812 -15.804688 15.195312 -16.851562 15.78125 -18 C 16.375 -19.15625 16.609375 -20.492188 16.484375 -22.015625 L 16.984375 -22.328125 L 23.171875 -22.203125 C 23.453125 -19.804688 23.070312 -17.488281 22.03125 -15.25 C 20.988281 -13.019531 19.003906 -11.003906 16.078125 -9.203125 C 13.328125 -7.515625 10.628906 -6.578125 7.984375 -6.390625 C 5.335938 -6.203125 2.835938 -6.804688 0.484375 -8.203125 C -1.867188 -9.597656 -3.96875 -11.785156 -5.8125 -14.765625 C -7.664062 -17.773438 -8.65625 -20.671875 -8.78125 -23.453125 C -8.914062 -26.234375 -8.328125 -28.734375 -7.015625 -30.953125 C -5.703125 -33.171875 -3.828125 -35.023438 -1.390625 -36.515625 C 2.367188 -38.828125 5.863281 -39.601562 9.09375 -38.84375 C 12.332031 -38.082031 15.140625 -35.773438 17.515625 -31.921875 C 18.367188 -30.515625 18.984375 -29.398438 19.359375 -28.578125 Z M 10.625 -28.75 C 9.320312 -30.75 7.941406 -31.941406 6.484375 -32.328125 C 5.035156 -32.710938 3.472656 -32.382812 1.796875 -31.34375 C -1.578125 -29.269531 -2.375 -26.101562 -0.59375 -21.84375 Z M 10.625 -28.75 "/></g></g></g><g fill="#000000" fill-opacity="1"><g transform="translate(208.546135, 136.10212)"><g><path d="M 12.125 -4.640625 C 9.539062 -3.515625 7.269531 -3.351562 5.3125 -4.15625 C 3.351562 -4.957031 1.753906 -6.773438 0.515625 -9.609375 L -13.53125 -41.859375 L -6.34375 -45 L 7.578125 -13.03125 C 8.335938 -11.289062 9.445312 -10.738281 10.90625 -11.375 C 11.3125 -11.550781 11.71875 -11.804688 12.125 -12.140625 L 12.546875 -12.203125 L 15.59375 -6.953125 C 15.28125 -6.566406 14.820312 -6.171875 14.21875 -5.765625 C 13.625 -5.359375 12.925781 -4.984375 12.125 -4.640625 Z M 12.125 -4.640625 "/></g></g></g><g fill="#000000" fill-opacity="1"><g transform="translate(221.747646, 129.355846)"><g><path d="M 17.6875 -4.15625 C 14.726562 -3.351562 11.96875 -3.257812 9.40625 -3.875 C 6.84375 -4.488281 4.628906 -5.800781 2.765625 -7.8125 C 0.910156 -9.820312 -0.46875 -12.484375 -1.375 -15.796875 C -2.269531 -19.117188 -2.414062 -22.117188 -1.8125 -24.796875 C -1.21875 -27.484375 0.03125 -29.734375 1.9375 -31.546875 C 3.84375 -33.359375 6.273438 -34.664062 9.234375 -35.46875 C 12.179688 -36.257812 14.9375 -36.347656 17.5 -35.734375 C 20.0625 -35.128906 22.273438 -33.820312 24.140625 -31.8125 C 26.015625 -29.800781 27.398438 -27.132812 28.296875 -23.8125 C 29.203125 -20.5 29.347656 -17.5 28.734375 -14.8125 C 28.128906 -12.132812 26.875 -9.882812 24.96875 -8.0625 C 23.0625 -6.25 20.632812 -4.945312 17.6875 -4.15625 Z M 15.953125 -10.59375 C 20.640625 -11.863281 22.148438 -15.566406 20.484375 -21.703125 C 19.628906 -24.890625 18.394531 -27.0625 16.78125 -28.21875 C 15.175781 -29.375 13.238281 -29.644531 10.96875 -29.03125 C 6.28125 -27.757812 4.765625 -24.046875 6.421875 -17.890625 C 8.085938 -11.753906 11.265625 -9.320312 15.953125 -10.59375 Z M 15.953125 -10.59375 "/></g></g></g><g fill="#000000" fill-opacity="1"><g transform="translate(252.535856, 120.537345)"><g><path d="M 5.296875 12.34375 L 2.484375 -31.453125 L 10.3125 -31.953125 L 10.578125 -27.875 L 11.171875 -27.8125 C 12.003906 -29.457031 13.164062 -30.726562 14.65625 -31.625 C 16.144531 -32.53125 17.929688 -33.046875 20.015625 -33.171875 C 22.523438 -33.335938 24.753906 -32.882812 26.703125 -31.8125 C 28.648438 -30.75 30.222656 -29.039062 31.421875 -26.6875 C 32.617188 -24.332031 33.332031 -21.367188 33.5625 -17.796875 C 33.789062 -14.234375 33.429688 -11.207031 32.484375 -8.71875 C 31.546875 -6.238281 30.132812 -4.335938 28.25 -3.015625 C 26.363281 -1.691406 24.132812 -0.945312 21.5625 -0.78125 C 19.625 -0.65625 17.925781 -0.875 16.46875 -1.4375 C 15.019531 -2 13.757812 -2.9375 12.6875 -4.25 L 12.09375 -4.09375 L 13.125 11.84375 Z M 18.96875 -7.28125 C 21.300781 -7.4375 23.019531 -8.316406 24.125 -9.921875 C 25.238281 -11.535156 25.691406 -13.988281 25.484375 -17.28125 C 25.273438 -20.570312 24.515625 -22.945312 23.203125 -24.40625 C 21.898438 -25.863281 20.082031 -26.515625 17.75 -26.359375 C 15.5625 -26.222656 13.875 -25.320312 12.6875 -23.65625 C 11.507812 -21.988281 11.023438 -19.554688 11.234375 -16.359375 C 11.441406 -13.171875 12.234375 -10.828125 13.609375 -9.328125 C 14.992188 -7.828125 16.78125 -7.144531 18.96875 -7.28125 Z M 18.96875 -7.28125 "/></g></g></g><g fill="#000000" fill-opacity="1"><g transform="translate(285.685746, 118.175299)"><g><path d="M 32.390625 -9.75 L 12.484375 -12.34375 C 12.359375 -9.613281 12.867188 -7.550781 14.015625 -6.15625 C 15.171875 -4.757812 16.878906 -3.914062 19.140625 -3.625 C 20.929688 -3.394531 22.421875 -3.539062 23.609375 -4.0625 C 24.796875 -4.582031 25.816406 -5.472656 26.671875 -6.734375 L 27.265625 -6.65625 L 31.984375 -2.65625 C 30.691406 -0.613281 28.9375 0.945312 26.71875 2.03125 C 24.5 3.113281 21.6875 3.429688 18.28125 2.984375 C 15.082031 2.566406 12.394531 1.597656 10.21875 0.078125 C 8.050781 -1.441406 6.488281 -3.484375 5.53125 -6.046875 C 4.582031 -8.617188 4.332031 -11.644531 4.78125 -15.125 C 5.238281 -18.632812 6.289062 -21.507812 7.9375 -23.75 C 9.582031 -26 11.613281 -27.566406 14.03125 -28.453125 C 16.457031 -29.347656 19.082031 -29.613281 21.90625 -29.25 C 26.289062 -28.675781 29.5 -27.078125 31.53125 -24.453125 C 33.5625 -21.828125 34.285156 -18.265625 33.703125 -13.765625 C 33.492188 -12.140625 33.269531 -10.882812 33.03125 -10 Z M 26.359375 -15.65625 C 26.597656 -18.007812 26.273438 -19.789062 25.390625 -21 C 24.515625 -22.21875 23.09375 -22.957031 21.125 -23.21875 C 17.207031 -23.726562 14.597656 -21.769531 13.296875 -17.34375 Z M 26.359375 -15.65625 "/></g></g></g><g fill="#000000" fill-opacity="1"><g transform="translate(315.898049, 122.210659)"><g><path d="M 4.3125 1.28125 L 13.1875 -28.671875 L 20.5 -26.515625 L 19.171875 -22.0625 L 19.703125 -21.78125 C 20.921875 -23.21875 22.234375 -24.148438 23.640625 -24.578125 C 25.054688 -25.015625 26.609375 -24.984375 28.296875 -24.484375 C 29.992188 -23.984375 31.195312 -23.3125 31.90625 -22.46875 L 28.71875 -16.359375 L 28.09375 -16.421875 C 27.675781 -16.773438 27.253906 -17.0625 26.828125 -17.28125 C 26.398438 -17.5 25.863281 -17.707031 25.21875 -17.90625 C 23.101562 -18.53125 21.273438 -18.269531 19.734375 -17.125 C 18.191406 -15.976562 16.941406 -13.769531 15.984375 -10.5 L 11.828125 3.5 Z M 4.3125 1.28125 "/></g></g></g><g fill="#000000" fill-opacity="1"><g transform="translate(336.660756, 128.168043)"><g><path d="M 4.546875 8.515625 L -2.265625 5.46875 L 32.125 -33.59375 L 38.9375 -30.546875 Z M 4.546875 8.515625 "/></g></g></g><g fill="#000000" fill-opacity="1"><g transform="translate(356.09851, 136.300824)"><g><path d="M 33.15625 1.5 L 6.140625 -3.671875 L 10.0625 -9.78125 L 26.90625 -6.203125 L 27.21875 -6.703125 L 16.96875 -20.53125 L 20.890625 -26.640625 L 36.828125 -4.21875 Z M 33.15625 1.5 "/></g></g></g><g fill="#000000" fill-opacity="1"><g transform="translate(379.904532, 152.033429)"><g/></g></g><g fill="#000000" fill-opacity="1"><g transform="translate(389.206573, 159.675408)"><g/></g></g><g fill="#000000" fill-opacity="1"><g transform="translate(397.728608, 167.437774)"><g><path d="M 6.625 16.921875 C 4.550781 14.484375 3.578125 12.171875 3.703125 9.984375 C 3.828125 7.804688 5.082031 5.703125 7.46875 3.671875 L 14.34375 -2.1875 C 15.332031 -3.03125 15.851562 -3.828125 15.90625 -4.578125 C 15.96875 -5.328125 15.585938 -6.191406 14.765625 -7.171875 L 13.546875 -8.59375 L 18.1875 -12.546875 L 19.40625 -11.125 C 20.226562 -10.144531 21.019531 -9.625 21.78125 -9.5625 C 22.539062 -9.507812 23.40625 -9.898438 24.375 -10.734375 L 31.25 -16.59375 C 33.632812 -18.625 35.914062 -19.523438 38.09375 -19.296875 C 40.269531 -19.078125 42.394531 -17.75 44.46875 -15.3125 L 46.859375 -12.5 L 42.3125 -8.625 L 40.859375 -10.328125 C 40.078125 -11.242188 39.296875 -11.726562 38.515625 -11.78125 C 37.742188 -11.84375 36.851562 -11.441406 35.84375 -10.578125 L 30.046875 -5.640625 C 28.421875 -4.265625 26.9375 -3.503906 25.59375 -3.359375 C 24.25 -3.222656 22.863281 -3.597656 21.4375 -4.484375 L 20.984375 -4.09375 C 21.640625 -2.550781 21.789062 -1.128906 21.4375 0.171875 C 21.082031 1.484375 20.09375 2.832031 18.46875 4.21875 L 12.65625 9.15625 C 11.664062 10.007812 11.132812 10.820312 11.0625 11.59375 C 10.988281 12.375 11.34375 13.222656 12.125 14.140625 L 13.578125 15.84375 L 9.015625 19.734375 Z M 6.625 16.921875 "/></g></g></g><g fill="#000000" fill-opacity="1"><g transform="translate(410.804123, 181.382371)"><g><path d="M 46.5 -3.03125 C 48.03125 -0.488281 48.867188 1.960938 49.015625 4.328125 C 49.171875 6.703125 48.6875 8.851562 47.5625 10.78125 C 46.445312 12.707031 44.785156 14.335938 42.578125 15.671875 C 40.359375 17.003906 38.132812 17.707031 35.90625 17.78125 C 33.6875 17.863281 31.570312 17.28125 29.5625 16.03125 C 27.550781 14.789062 25.78125 12.898438 24.25 10.359375 L 20.21875 3.671875 L 6.984375 11.625 L 2.765625 4.609375 L 38.25 -16.734375 Z M 29.25 6.109375 C 31.59375 10.003906 34.617188 10.835938 38.328125 8.609375 C 42.046875 6.367188 42.734375 3.300781 40.390625 -0.59375 L 36.90625 -6.375 L 25.765625 0.328125 Z M 29.25 6.109375 "/></g></g></g><g fill="#000000" fill-opacity="1"><g transform="translate(428.181505, 210.751498)"><g><path d="M 1.640625 4.1875 L 30.734375 -7.1875 L 33.5 -0.078125 L 29.171875 1.609375 L 29.296875 2.203125 C 31.179688 2.273438 32.722656 2.734375 33.921875 3.578125 C 35.128906 4.429688 36.054688 5.675781 36.703125 7.3125 C 37.347656 8.96875 37.554688 10.335938 37.328125 11.421875 L 30.53125 12.640625 L 30.21875 12.109375 C 30.226562 11.566406 30.1875 11.054688 30.09375 10.578125 C 30.007812 10.109375 29.847656 9.554688 29.609375 8.921875 C 28.804688 6.878906 27.476562 5.601562 25.625 5.09375 C 23.78125 4.582031 21.273438 4.945312 18.109375 6.1875 L 4.5 11.5 Z M 1.640625 4.1875 "/></g></g></g><g fill="#000000" fill-opacity="1"><g transform="translate(436.535225, 229.992875)"><g><path d="M 3.171875 17.890625 C 2.535156 14.890625 2.59375 12.128906 3.34375 9.609375 C 4.09375 7.085938 5.523438 4.953125 7.640625 3.203125 C 9.753906 1.453125 12.492188 0.222656 15.859375 -0.484375 C 19.210938 -1.191406 22.207031 -1.171875 24.84375 -0.421875 C 27.488281 0.328125 29.664062 1.703125 31.375 3.703125 C 33.082031 5.703125 34.253906 8.203125 34.890625 11.203125 C 35.515625 14.191406 35.453125 16.945312 34.703125 19.46875 C 33.953125 22 32.519531 24.140625 30.40625 25.890625 C 28.289062 27.648438 25.554688 28.882812 22.203125 29.59375 C 18.835938 30.300781 15.832031 30.273438 13.1875 29.515625 C 10.550781 28.765625 8.378906 27.382812 6.671875 25.375 C 4.960938 23.375 3.796875 20.878906 3.171875 17.890625 Z M 9.6875 16.515625 C 10.6875 21.265625 14.300781 22.984375 20.53125 21.671875 C 23.757812 20.992188 25.992188 19.882812 27.234375 18.34375 C 28.472656 16.800781 28.851562 14.878906 28.375 12.578125 C 27.375 7.828125 23.757812 6.109375 17.53125 7.421875 C 11.300781 8.734375 8.6875 11.765625 9.6875 16.515625 Z M 9.6875 16.515625 "/></g></g></g><g fill="#000000" fill-opacity="1"><g transform="translate(443.386091, 261.525812)"><g><path d="M -12.90625 16.484375 C -13.019531 11.328125 -12.34375 7.503906 -10.875 5.015625 C -9.414062 2.535156 -7.335938 1.265625 -4.640625 1.203125 C -2.992188 1.171875 -1.632812 1.664062 -0.5625 2.6875 C 0.5 3.71875 1.226562 5.207031 1.625 7.15625 L 2.21875 7.140625 C 2.84375 6.078125 3.539062 5.304688 4.3125 4.828125 C 5.082031 4.347656 5.988281 4.097656 7.03125 4.078125 C 9.539062 4.015625 11.265625 5.613281 12.203125 8.875 L 12.796875 8.859375 C 13.722656 7.148438 14.890625 5.851562 16.296875 4.96875 C 17.703125 4.09375 19.414062 3.632812 21.4375 3.59375 C 23.507812 3.550781 25.34375 3.988281 26.9375 4.90625 C 28.539062 5.820312 29.800781 7.191406 30.71875 9.015625 C 31.632812 10.847656 32.117188 13.046875 32.171875 15.609375 C 32.222656 18.210938 31.816406 20.300781 30.953125 21.875 C 32.367188 22.800781 33.988281 23.320312 35.8125 23.4375 L 36.203125 24.03125 L 34.921875 29.6875 C 33.441406 29.539062 32.1875 29.128906 31.15625 28.453125 C 30.132812 27.785156 29.210938 26.722656 28.390625 25.265625 L 27.765625 25.28125 C 26.253906 27.0625 24.113281 27.984375 21.34375 28.046875 C 19.414062 28.085938 17.675781 27.644531 16.125 26.71875 C 14.570312 25.789062 13.332031 24.414062 12.40625 22.59375 C 11.476562 20.769531 10.988281 18.59375 10.9375 16.0625 L 10.9375 14.875 C 10.957031 14.125 10.960938 13.597656 10.953125 13.296875 C 10.941406 12.578125 10.738281 12.015625 10.34375 11.609375 C 9.945312 11.210938 9.445312 11.019531 8.84375 11.03125 C 8.1875 11.050781 7.675781 11.328125 7.3125 11.859375 C 6.957031 12.390625 6.769531 13.164062 6.75 14.1875 L 6.65625 21.203125 C 6.59375 28.109375 3.691406 31.625 -2.046875 31.75 C -4.066406 31.789062 -5.875 31.3125 -7.46875 30.3125 C -9.070312 29.320312 -10.359375 27.679688 -11.328125 25.390625 C -12.304688 23.109375 -12.832031 20.140625 -12.90625 16.484375 Z M 16.4375 15.9375 C 16.46875 17.445312 16.9375 18.617188 17.84375 19.453125 C 18.75 20.285156 20.023438 20.679688 21.671875 20.640625 C 23.304688 20.609375 24.550781 20.15625 25.40625 19.28125 C 26.269531 18.414062 26.6875 17.226562 26.65625 15.71875 C 26.625 14.1875 26.160156 13.015625 25.265625 12.203125 C 24.367188 11.398438 23.101562 11.015625 21.46875 11.046875 C 19.800781 11.085938 18.535156 11.53125 17.671875 12.375 C 16.816406 13.21875 16.40625 14.40625 16.4375 15.9375 Z M -7.21875 16.359375 C -7.164062 19.035156 -6.75 20.972656 -5.96875 22.171875 C -5.1875 23.378906 -4.191406 23.972656 -2.984375 23.953125 C -2.003906 23.929688 -1.285156 23.601562 -0.828125 22.96875 C -0.378906 22.332031 -0.148438 21.335938 -0.140625 19.984375 L 0.015625 13.796875 C 0.00390625 13.585938 0.00390625 13.390625 0.015625 13.203125 C 0.0351562 13.023438 0.0390625 12.851562 0.03125 12.6875 C 0.0078125 11.363281 -0.285156 10.363281 -0.859375 9.6875 C -1.441406 9.019531 -2.234375 8.695312 -3.234375 8.71875 C -4.554688 8.738281 -5.5625 9.390625 -6.25 10.671875 C -6.945312 11.953125 -7.269531 13.847656 -7.21875 16.359375 Z M -7.21875 16.359375 "/></g></g></g><g fill="#000000" fill-opacity="1"><g transform="translate(443.959749, 290.614419)"><g><path d="M -0.59375 4.453125 L 30.359375 8.609375 L 29.34375 16.171875 L 24.75 15.546875 L 24.5625 16.125 C 26.164062 17.09375 27.289062 18.238281 27.9375 19.5625 C 28.582031 20.894531 28.785156 22.4375 28.546875 24.1875 C 28.316406 25.9375 27.84375 27.226562 27.125 28.0625 L 20.578125 25.859375 L 20.578125 25.234375 C 20.835938 24.765625 21.046875 24.300781 21.203125 23.84375 C 21.359375 23.394531 21.484375 22.832031 21.578125 22.15625 C 21.867188 19.976562 21.328125 18.21875 19.953125 16.875 C 18.585938 15.53125 16.21875 14.628906 12.84375 14.171875 L -1.640625 12.234375 Z M -0.59375 4.453125 "/></g></g></g><g fill="#000000" fill-opacity="1"><g transform="translate(441.73747, 311.641145)"><g><path d="M -4.03125 11.5 C -3.457031 9.582031 -2.609375 8.019531 -1.484375 6.8125 C -0.367188 5.613281 0.984375 4.835938 2.578125 4.484375 C 4.171875 4.128906 5.925781 4.238281 7.84375 4.8125 C 9.625 5.34375 11 6.164062 11.96875 7.28125 C 12.945312 8.40625 13.582031 9.875 13.875 11.6875 C 14.175781 13.507812 14.15625 15.765625 13.8125 18.453125 C 13.570312 20.335938 13.484375 21.796875 13.546875 22.828125 C 13.609375 23.859375 13.804688 24.601562 14.140625 25.0625 C 14.472656 25.519531 14.976562 25.847656 15.65625 26.046875 C 16.613281 26.335938 17.441406 26.21875 18.140625 25.6875 C 18.847656 25.164062 19.4375 24.128906 19.90625 22.578125 C 20.394531 20.910156 20.488281 19.21875 20.1875 17.5 C 19.894531 15.78125 19.304688 14.1875 18.421875 12.71875 L 18.59375 12.171875 L 24.28125 10.453125 C 25.507812 12.460938 26.269531 14.695312 26.5625 17.15625 C 26.851562 19.625 26.613281 22.160156 25.84375 24.765625 C 24.664062 28.722656 22.96875 31.335938 20.75 32.609375 C 18.539062 33.878906 15.890625 34.054688 12.796875 33.140625 L -0.203125 29.28125 C -1.535156 28.882812 -2.378906 29.273438 -2.734375 30.453125 C -2.859375 30.910156 -2.910156 31.375 -2.890625 31.84375 L -3.09375 32.203125 L -8.5 31.171875 C -8.644531 30.679688 -8.691406 30.039062 -8.640625 29.25 C -8.597656 28.457031 -8.445312 27.617188 -8.1875 26.734375 C -7.65625 24.941406 -6.894531 23.644531 -5.90625 22.84375 C -4.914062 22.039062 -3.625 21.640625 -2.03125 21.640625 L -1.796875 21.09375 C -4.472656 18.695312 -5.21875 15.5 -4.03125 11.5 Z M 0.859375 15.5625 C 0.347656 17.300781 0.519531 18.863281 1.375 20.25 C 2.238281 21.632812 3.710938 22.632812 5.796875 23.25 L 8.828125 24.15625 L 9.09375 23.6875 C 8.851562 23.125 8.722656 22.441406 8.703125 21.640625 C 8.679688 20.835938 8.753906 19.707031 8.921875 18.25 C 9.148438 16.539062 9.035156 15.226562 8.578125 14.3125 C 8.117188 13.40625 7.285156 12.773438 6.078125 12.421875 C 4.785156 12.035156 3.691406 12.125 2.796875 12.6875 C 1.910156 13.25 1.265625 14.207031 0.859375 15.5625 Z M 0.859375 15.5625 "/></g></g></g><g fill="#000000" fill-opacity="1"><g transform="translate(435.477497, 339.089603)"><g><path d="M -2.25 3.890625 L 24.78125 19.546875 L 21 26.0625 L 17.375 23.953125 L 16.984375 24.421875 C 17.921875 26.140625 18.390625 27.789062 18.390625 29.375 C 18.390625 30.96875 17.859375 32.6875 16.796875 34.53125 C 15.609375 36.570312 14.25 37.976562 12.71875 38.75 C 11.195312 39.53125 9.5 39.753906 7.625 39.421875 L 7.3125 39.9375 C 8.445312 41.695312 9.019531 43.460938 9.03125 45.234375 C 9.050781 47.003906 8.492188 48.867188 7.359375 50.828125 C 4.109375 56.429688 -0.632812 57.425781 -6.875 53.8125 L -25.0625 43.28125 L -21.125 36.5 L -3.796875 46.53125 C -2.210938 47.445312 -0.890625 47.796875 0.171875 47.578125 C 1.234375 47.359375 2.160156 46.566406 2.953125 45.203125 C 5.109375 41.472656 3.691406 38.164062 -1.296875 35.28125 L -15.625 26.984375 L -11.703125 20.203125 L 5.625 30.234375 C 7.207031 31.148438 8.535156 31.492188 9.609375 31.265625 C 10.679688 31.046875 11.613281 30.25 12.40625 28.875 C 13.414062 27.125 13.617188 25.421875 13.015625 23.765625 C 12.421875 22.109375 10.847656 20.546875 8.296875 19.078125 L -6.1875 10.6875 Z M -2.25 3.890625 "/></g></g></g><g fill="#000000" fill-opacity="1"><g transform="translate(412.199492, 381.075804)"><g><path d="M -3.28125 3.078125 L 18.078125 25.875 L 12.578125 31.03125 L 9.71875 27.96875 L 9.203125 28.296875 C 9.609375 30.210938 9.582031 31.925781 9.125 33.4375 C 8.664062 34.945312 7.65625 36.4375 6.09375 37.90625 C 4.382812 39.507812 2.6875 40.460938 1 40.765625 C -0.6875 41.078125 -2.382812 40.800781 -4.09375 39.9375 L -4.515625 40.34375 C -3.953125 42.375 -3.914062 44.234375 -4.40625 45.921875 C -4.90625 47.609375 -5.984375 49.226562 -7.640625 50.78125 C -12.367188 55.207031 -17.195312 54.789062 -22.125 49.53125 L -36.5 34.203125 L -30.765625 28.84375 L -17.078125 43.453125 C -15.828125 44.785156 -14.660156 45.5 -13.578125 45.59375 C -12.503906 45.695312 -11.390625 45.207031 -10.234375 44.125 C -7.085938 41.1875 -7.484375 37.613281 -11.421875 33.40625 L -22.75 21.328125 L -17.03125 15.96875 L -3.34375 30.578125 C -2.09375 31.910156 -0.925781 32.625 0.15625 32.71875 C 1.25 32.8125 2.375 32.316406 3.53125 31.234375 C 5.007812 29.847656 5.703125 28.273438 5.609375 26.515625 C 5.515625 24.753906 4.457031 22.796875 2.4375 20.640625 L -9 8.4375 Z M -3.28125 3.078125 "/></g></g></g><g fill="#000000" fill-opacity="1"><g transform="translate(376.163382, 414.054837)"><g><path d="M -20.0625 27.234375 L -2.59375 17.359375 C -4.113281 15.097656 -5.753906 13.753906 -7.515625 13.328125 C -9.273438 12.910156 -11.148438 13.265625 -13.140625 14.390625 C -14.703125 15.273438 -15.800781 16.28125 -16.4375 17.40625 C -17.082031 18.539062 -17.367188 19.863281 -17.296875 21.375 L -17.8125 21.671875 L -23.984375 21.328125 C -24.171875 18.921875 -23.703125 16.617188 -22.578125 14.421875 C -21.460938 12.222656 -19.410156 10.28125 -16.421875 8.59375 C -13.609375 7.007812 -10.875 6.171875 -8.21875 6.078125 C -5.570312 5.992188 -3.097656 6.691406 -0.796875 8.171875 C 1.503906 9.648438 3.519531 11.914062 5.25 14.96875 C 6.988281 18.050781 7.875 20.984375 7.90625 23.765625 C 7.9375 26.546875 7.25 29.019531 5.84375 31.1875 C 4.445312 33.351562 2.507812 35.132812 0.03125 36.53125 C -3.8125 38.707031 -7.332031 39.351562 -10.53125 38.46875 C -13.738281 37.59375 -16.457031 35.1875 -18.6875 31.25 C -19.488281 29.8125 -20.0625 28.671875 -20.40625 27.828125 Z M -11.6875 28.34375 C -10.457031 30.375 -9.125 31.609375 -7.6875 32.046875 C -6.257812 32.492188 -4.679688 32.226562 -2.953125 31.25 C 0.492188 29.300781 1.40625 26.171875 -0.21875 21.859375 Z M -11.6875 28.34375 "/></g></g></g><g fill="#000000" fill-opacity="1"><g transform="translate(349.58051, 428.966027)"><g><path d="M -4.21875 1.5625 L 6.671875 30.84375 L -0.46875 33.5 L -2.09375 29.140625 L -2.6875 29.265625 C -2.78125 31.140625 -3.265625 32.671875 -4.140625 33.859375 C -5.015625 35.054688 -6.273438 35.960938 -7.921875 36.578125 C -9.578125 37.191406 -10.945312 37.375 -12.03125 37.125 L -13.140625 30.328125 L -12.625 30.015625 C -12.082031 30.035156 -11.566406 30.003906 -11.078125 29.921875 C -10.597656 29.835938 -10.039062 29.679688 -9.40625 29.453125 C -7.351562 28.679688 -6.050781 27.375 -5.5 25.53125 C -4.957031 23.695312 -5.28125 21.179688 -6.46875 17.984375 L -11.5625 4.296875 Z M -4.21875 1.5625 "/></g></g></g><g fill="#000000" fill-opacity="1"><g transform="translate(329.276673, 436.638515)"><g><path d="M -3.03125 -5.375 L -1.671875 0.453125 L -3.84375 0.953125 C -5 1.222656 -5.78125 1.691406 -6.1875 2.359375 C -6.601562 3.023438 -6.660156 4 -6.359375 5.28125 L -4.640625 12.703125 C -4.148438 14.785156 -4.160156 16.453125 -4.671875 17.703125 C -5.179688 18.953125 -6.15625 20.019531 -7.59375 20.90625 L -7.453125 21.484375 C -5.773438 21.628906 -4.429688 22.148438 -3.421875 23.046875 C -2.421875 23.953125 -1.679688 25.441406 -1.203125 27.515625 L 0.53125 34.9375 C 0.832031 36.226562 1.3125 37.082031 1.96875 37.5 C 2.632812 37.914062 3.546875 37.988281 4.703125 37.71875 L 6.875 37.21875 L 8.21875 43.03125 L 4.640625 43.859375 C 1.515625 44.585938 -0.984375 44.394531 -2.859375 43.28125 C -4.734375 42.175781 -6.03125 40.097656 -6.75 37.046875 L -8.78125 28.25 C -9.070312 27 -9.539062 26.171875 -10.1875 25.765625 C -10.832031 25.359375 -11.785156 25.300781 -13.046875 25.59375 L -14.828125 26 L -16.203125 20.078125 L -14.421875 19.671875 C -13.160156 19.378906 -12.328125 18.910156 -11.921875 18.265625 C -11.523438 17.617188 -11.472656 16.664062 -11.765625 15.40625 L -13.8125 6.609375 C -14.519531 3.554688 -14.273438 1.117188 -13.078125 -0.703125 C -11.890625 -2.535156 -9.734375 -3.816406 -6.609375 -4.546875 Z M -3.03125 -5.375 "/></g></g></g><g fill="#000000" fill-opacity="1"><g transform="translate(309.537494, 441.176553)"><g><path d="M -2.15625 -8.125 C -3.675781 -6.90625 -4.992188 -5.5 -6.109375 -3.90625 C -7.234375 -2.3125 -7.753906 -0.769531 -7.671875 0.71875 C -6.210938 0.53125 -5.007812 0.820312 -4.0625 1.59375 C -3.125 2.363281 -2.570312 3.441406 -2.40625 4.828125 C -2.289062 5.703125 -2.390625 6.523438 -2.703125 7.296875 C -3.015625 8.078125 -3.519531 8.71875 -4.21875 9.21875 C -4.914062 9.726562 -5.753906 10.046875 -6.734375 10.171875 C -8.304688 10.359375 -9.625 9.992188 -10.6875 9.078125 C -11.757812 8.171875 -12.414062 6.753906 -12.65625 4.828125 C -13.070312 1.472656 -12.582031 -1.539062 -11.1875 -4.21875 C -9.789062 -6.90625 -7.785156 -9.28125 -5.171875 -11.34375 Z M -5.203125 22.875 C -4.210938 22.75 -3.3125 22.84375 -2.5 23.15625 C -1.695312 23.46875 -1.050781 23.953125 -0.5625 24.609375 C -0.0703125 25.265625 0.226562 26.039062 0.34375 26.9375 C 0.457031 27.832031 0.359375 28.660156 0.046875 29.421875 C -0.265625 30.191406 -0.773438 30.832031 -1.484375 31.34375 C -2.191406 31.851562 -3.039062 32.171875 -4.03125 32.296875 C -5.039062 32.421875 -5.953125 32.328125 -6.765625 32.015625 C -7.578125 31.703125 -8.226562 31.210938 -8.71875 30.546875 C -9.21875 29.890625 -9.523438 29.113281 -9.640625 28.21875 C -9.804688 26.851562 -9.488281 25.664062 -8.6875 24.65625 C -7.882812 23.65625 -6.722656 23.0625 -5.203125 22.875 Z M -5.203125 22.875 "/></g></g></g></svg>